<?xml version="1.0" encoding="UTF-8"?>
<svg version="1.1" xmlns="http://www.w3.org/2000/svg" width="595" height="595">
<path d="M0 0 C1.01653656 -0.00570007 2.03307312 -0.01140015 3.08041382 -0.01727295 C5.22677592 -0.02666837 7.37315208 -0.03323504 9.51953125 -0.03710938 C12.71642207 -0.04670389 15.91263753 -0.07773392 19.109375 -0.109375 C37.65889184 -0.20493019 56.003482 1.47226505 74.1484375 5.453125 C75.12369385 5.66364502 76.0989502 5.87416504 77.10375977 6.09106445 C117.7133935 15.12879747 156.8977223 32.02934062 190.1484375 57.203125 C191.27724518 58.0444031 192.40615284 58.88554708 193.53515625 59.7265625 C199.57291957 64.26272398 205.34139241 69.01604419 210.8984375 74.13671875 C212.8829057 75.95925986 214.90629642 77.71096058 216.9609375 79.453125 C226.61214608 87.89304829 235.20799084 97.14818324 243.1484375 107.203125 C244.58552328 108.9118068 246.0230335 110.6201317 247.4609375 112.328125 C257.56063898 124.72880195 266.14133583 137.94889683 273.88427734 151.92578125 C275.05681673 154.03807315 276.25122596 156.13645958 277.44921875 158.234375 C298.35023549 195.51976097 311.1587018 241.17425819 311.3515625 284.0546875 C311.35726257 285.07122406 311.36296265 286.08776062 311.36883545 287.13510132 C311.37823087 289.28146342 311.38479754 291.42783958 311.38867188 293.57421875 C311.39826639 296.77110957 311.42929642 299.96732503 311.4609375 303.1640625 C311.55649269 321.71357934 309.87929745 340.0581695 305.8984375 358.203125 C305.68791748 359.17838135 305.47739746 360.1536377 305.26049805 361.15844727 C296.22276503 401.768081 279.32222188 440.9524098 254.1484375 474.203125 C253.3071594 475.33193268 252.46601542 476.46084034 251.625 477.58984375 C247.08883852 483.62760707 242.33551831 489.39607991 237.21484375 494.953125 C235.39230264 496.9375932 233.64060192 498.96098392 231.8984375 501.015625 C223.45851421 510.66683358 214.20337926 519.26267834 204.1484375 527.203125 C202.4397557 528.64021078 200.7314308 530.077721 199.0234375 531.515625 C186.62276055 541.61532648 173.40266567 550.19602333 159.42578125 557.93896484 C157.31348935 559.11150423 155.21510292 560.30591346 153.1171875 561.50390625 C115.83180153 582.40492299 70.17730431 595.2133893 27.296875 595.40625 C26.28033844 595.41195007 25.26380188 595.41765015 24.21646118 595.42352295 C22.07009908 595.43291837 19.92372292 595.43948504 17.77734375 595.44335938 C14.58045293 595.45295389 11.38423747 595.48398392 8.1875 595.515625 C-10.36201684 595.61118019 -28.706607 593.93398495 -46.8515625 589.953125 C-48.31444702 589.63734497 -48.31444702 589.63734497 -49.80688477 589.31518555 C-90.4165185 580.27745253 -129.6008473 563.37690938 -162.8515625 538.203125 C-163.98037018 537.3618469 -165.10927784 536.52070292 -166.23828125 535.6796875 C-172.27604457 531.14352602 -178.04451741 526.39020581 -183.6015625 521.26953125 C-185.5860307 519.44699014 -187.60942142 517.69528942 -189.6640625 515.953125 C-199.31527108 507.51320171 -207.91111584 498.25806676 -215.8515625 488.203125 C-217.28864828 486.4944432 -218.7261585 484.7861183 -220.1640625 483.078125 C-230.26376398 470.67744805 -238.84446083 457.45735317 -246.58740234 443.48046875 C-247.75994173 441.36817685 -248.95435096 439.26979042 -250.15234375 437.171875 C-271.05336049 399.88648903 -283.8618268 354.23199181 -284.0546875 311.3515625 C-284.06038757 310.33502594 -284.06608765 309.31848938 -284.07196045 308.27114868 C-284.08135587 306.12478658 -284.08792254 303.97841042 -284.09179688 301.83203125 C-284.10139139 298.63514043 -284.13242142 295.43892497 -284.1640625 292.2421875 C-284.25961769 273.69267066 -282.58242245 255.3480805 -278.6015625 237.203125 C-278.39104248 236.22786865 -278.18052246 235.2526123 -277.96362305 234.24780273 C-268.92589003 193.638169 -252.02534688 154.4538402 -226.8515625 121.203125 C-226.0102844 120.07431732 -225.16914042 118.94540966 -224.328125 117.81640625 C-219.79196352 111.77864293 -215.03864331 106.01017009 -209.91796875 100.453125 C-208.09542764 98.4686568 -206.34372692 96.44526608 -204.6015625 94.390625 C-196.16163921 84.73941642 -186.90650426 76.14357166 -176.8515625 68.203125 C-175.1428807 66.76603922 -173.4345558 65.328529 -171.7265625 63.890625 C-159.32588555 53.79092352 -146.10579067 45.21022667 -132.12890625 37.46728516 C-130.01661435 36.29474577 -127.91822792 35.10033654 -125.8203125 33.90234375 C-88.53492653 13.00132701 -42.88042931 0.1928607 0 0 Z " fill="#FEFEFE" transform="translate(283.8515625,-0.203125)"/>
<path d="M0 0 C1.16348465 -0.00761353 2.3269693 -0.01522705 3.52571106 -0.02307129 C5.97195304 -0.03380568 8.41824061 -0.03675278 10.86450195 -0.03222656 C14.55565067 -0.03125693 18.24469847 -0.07290618 21.93554688 -0.1171875 C44.40171942 -0.2302127 63.01791132 3.30743682 79.59765625 19.546875 C91.9944878 32.21283723 96.64471276 47.01151449 99.01953125 64.15625 C99.220625 65.54166992 99.220625 65.54166992 99.42578125 66.95507812 C100.02104902 71.17358289 100.46557949 75.20064547 100.39453125 79.46875 C101.01199219 79.61570312 101.62945312 79.76265625 102.265625 79.9140625 C113.71942 82.94748766 121.77625001 89.09036657 128.0546875 99.12109375 C137.32457436 116.08931417 138.39014075 139.3070712 133.70703125 157.90625 C132.99235939 160.11273689 132.22585147 162.30351399 131.39453125 164.46875 C131.02070313 165.44457031 130.646875 166.42039062 130.26171875 167.42578125 C122.88929078 184.88037066 111.31115933 197.28591238 93.72265625 204.625 C87.69758073 206.80858442 81.84895724 208.7009236 75.39453125 208.46875 C75.4409375 209.20480469 75.48734375 209.94085938 75.53515625 210.69921875 C75.82625652 218.56932236 75.82625652 218.56932236 73.89453125 222.59375 C71.00360705 224.76194315 68.95887545 225.56922725 65.3671875 225.77734375 C63.39453125 225.46875 63.39453125 225.46875 60.39453125 223.21875 C58.39453125 219.46875 58.39453125 219.46875 58.39453125 208.46875 C30.01453125 208.46875 1.63453125 208.46875 -27.60546875 208.46875 C-27.60546875 211.76875 -27.60546875 215.06875 -27.60546875 218.46875 C-28.85320381 221.46331414 -29.83827669 222.86595624 -32.35546875 224.84375 C-35.78754834 225.79710544 -38.18369491 225.38529656 -41.60546875 224.46875 C-44.04296875 222.59375 -44.04296875 222.59375 -45.60546875 219.46875 C-45.92225828 215.7763343 -45.83845991 212.16424861 -45.60546875 208.46875 C-46.17652344 208.45457031 -46.74757813 208.44039062 -47.3359375 208.42578125 C-63.36888895 207.48266646 -77.68004144 198.85400169 -88.60546875 187.46875 C-104.08934777 168.58082754 -107.29468268 146.64104725 -105.40332031 122.93505859 C-103.88295043 109.24886102 -99.21621257 96.71778169 -88.60546875 87.46875 C-82.83376976 83.43615505 -77.67569025 80.30794543 -70.60546875 79.46875 C-70.53030029 78.77426758 -70.45513184 78.07978516 -70.37768555 77.36425781 C-70.02463286 74.14808927 -69.65885846 70.93348245 -69.29296875 67.71875 C-69.11604492 66.08099609 -69.11604492 66.08099609 -68.93554688 64.41015625 C-66.52460998 43.51536987 -59.35383076 26.95392011 -43.06640625 13.34765625 C-30.15466163 3.81755903 -15.88486343 0.00294125 0 0 Z " fill="#262223" transform="translate(363.60546875,243.53125)"/>
<path d="M0 0 C1.08655884 -0.00700928 2.17311768 -0.01401855 3.29260254 -0.02124023 C6.88803585 -0.03886056 10.48268354 -0.02718245 14.078125 -0.01367188 C16.57389477 -0.01636561 19.06966352 -0.02024703 21.56542969 -0.02526855 C26.79760775 -0.03116908 32.02958108 -0.02296334 37.26171875 -0.00390625 C43.30809512 0.01786244 49.35393196 0.01081088 55.40029526 -0.01121187 C61.22025466 -0.03156034 67.0400092 -0.02939482 72.85998535 -0.01768494 C75.33516515 -0.01501343 77.81035869 -0.01830224 80.28552246 -0.02760315 C83.74280459 -0.03774296 87.19904557 -0.02230206 90.65625 0 C91.68286743 -0.00809692 92.70948486 -0.01619385 93.76721191 -0.02453613 C100.64144339 0.05776535 100.64144339 0.05776535 103.89970398 2.23954773 C109.807296 11.66091159 110.09648737 26.19855593 111.90234375 37.06054688 C112.23414889 39.03969295 112.56616872 41.01880305 112.89839172 42.99787903 C113.58994154 47.12491415 114.27776964 51.25254873 114.96313477 55.38061523 C115.83912865 60.65401276 116.72621036 65.92547734 117.61629009 71.19651318 C118.30342241 75.27500885 118.98377628 79.35461388 119.66221046 83.43456459 C119.98645241 85.37848322 120.31297387 87.32202313 120.64188194 89.2651577 C121.10120263 91.98384409 121.55111687 94.70393352 121.9987793 97.42456055 C122.20210121 98.61009521 122.20210121 98.61009521 122.40953064 99.81958008 C124.61826674 113.45335134 124.61826674 113.45335134 121.453125 118.51757812 C118.00914975 121.75896659 115.96456554 121.64035988 111.31787109 121.63110352 C110.05671478 121.63102798 108.79555847 121.63095245 107.4961853 121.63087463 C106.11464397 121.62576762 104.73310304 121.62055162 103.3515625 121.61523438 C101.9419459 121.61336956 100.53232866 121.61194596 99.12271118 121.61094666 C95.41058568 121.60712646 91.69849922 121.59730041 87.98638916 121.58624268 C84.19926481 121.57601788 80.41213417 121.57144674 76.625 121.56640625 C69.19269052 121.5556777 61.76041323 121.53860723 54.328125 121.51757812 C54.32964388 122.08699133 54.33116276 122.65640454 54.33272767 123.24307269 C54.42220899 156.97918134 54.49085553 190.71526303 54.53238632 224.45146446 C54.53738924 228.50076491 54.54256652 232.55006513 54.54785156 236.59936523 C54.5489008 237.40551967 54.54995005 238.21167411 54.55103108 239.04225747 C54.5684439 252.10130043 54.59998639 265.16027308 54.63673618 278.2192743 C54.67412126 291.61559107 54.69635569 305.01187096 54.70447898 318.40823776 C54.70997182 326.67683342 54.72733028 334.94523033 54.75979087 343.21376482 C54.78090875 348.88117033 54.78733126 354.54847285 54.78213051 360.21591487 C54.77956442 363.48749548 54.7857172 366.7586543 54.8049469 370.03018951 C54.82477039 373.57576018 54.82009122 377.12047195 54.80914307 380.6660614 C54.82079443 381.70205323 54.8324458 382.73804507 54.84445024 383.80543059 C54.80730757 388.23815302 54.77398437 390.78837789 52.42306137 394.63329792 C49.92846748 396.87704812 48.84817687 397.44823788 45.515625 397.89257812 C42.328125 397.51757812 42.328125 397.51757812 39.66648579 395.6771059 C36.25560221 391.06841529 36.64875745 387.18696925 36.72685242 381.59013367 C36.72258029 380.4751353 36.71830817 379.36013693 36.71390659 378.21135074 C36.70565743 374.46756153 36.73319559 370.72488752 36.76049805 366.98120117 C36.7619081 364.30066907 36.76133768 361.6202057 36.75828552 358.93968201 C36.75566427 353.16488241 36.77134608 347.39036536 36.79947472 341.61563683 C36.84011723 333.26640825 36.85313267 324.91731624 36.85941467 316.56799946 C36.8703567 303.02173665 36.90362836 289.47562442 36.95092773 275.92944336 C36.99682573 262.77092238 37.03221644 249.6124423 37.0534668 236.45385742 C37.05478041 235.64270824 37.05609403 234.83155906 37.05744746 233.9958296 C37.06397266 229.92651565 37.0702912 225.85720141 37.07650697 221.78788698 C37.12833713 188.03100816 37.21639985 154.2743116 37.328125 120.51757812 C36.5226825 120.52646057 35.71723999 120.53534302 34.88739014 120.54449463 C27.29513955 120.62465817 19.70309428 120.6855511 12.11053085 120.72482681 C8.20712982 120.74569782 4.3040786 120.77400569 0.40087891 120.81933594 C-3.3662942 120.8628124 -7.13313095 120.8867189 -10.90053558 120.8970871 C-12.33748419 120.90447536 -13.77441447 120.91890319 -15.21121979 120.94049835 C-17.22428925 120.96955015 -19.23769753 120.97121217 -21.25097656 120.97167969 C-22.39681213 120.98056213 -23.54264771 120.98944458 -24.72320557 120.99859619 C-28.31636327 120.4124424 -29.48448791 119.3734611 -31.671875 116.51757812 C-32.93991598 109.56811675 -31.34648646 101.95675324 -30.17480469 95.06079102 C-30.01541916 94.08049927 -29.85603363 93.10020752 -29.69181824 92.09020996 C-29.16845395 88.88860046 -28.6319052 85.68938848 -28.09375 82.49023438 C-27.72187316 80.25114587 -27.35031662 78.01200414 -26.97906494 75.77281189 C-26.20179169 71.09933853 -25.41735415 66.4271332 -24.62841797 61.75561523 C-23.61819231 55.76736099 -22.63114522 49.775538 -21.64997482 43.78246403 C-20.89070557 39.16611724 -20.1167113 34.55233008 -19.33847809 29.93914604 C-18.96813028 27.72999073 -18.60297863 25.5199578 -18.24312592 23.30906868 C-17.73959058 20.22609852 -17.21571626 17.14725822 -16.68652344 14.06860352 C-16.54194199 13.15584152 -16.39736053 12.24307953 -16.24839783 11.30265808 C-15.6305037 7.81078858 -14.97367483 5.04810151 -13.21295166 1.95298767 C-9.00986113 -0.4212643 -4.74208252 -0.03740077 0 0 Z " fill="#252122" transform="translate(194.671875,71.482421875)"/>
<path d="M0 0 C1.09892075 -0.01606293 2.19784149 -0.03212585 3.33006287 -0.04867554 C8.37351706 -0.09345216 13.41684213 -0.13422903 18.46044922 -0.15722656 C21.10897646 -0.17372829 23.75746025 -0.20094071 26.40576172 -0.23925781 C30.2447802 -0.29446095 34.08275537 -0.31597264 37.92211914 -0.33056641 C39.08927963 -0.35323578 40.25644012 -0.37590515 41.45896912 -0.39926147 C54.49233504 -0.36631027 65.91549681 4.35036267 75.51977539 13.19287109 C88.09627245 27.87587927 89.8577706 43.6761824 91.51977539 62.19287109 C90.87911133 62.55638672 90.23844727 62.91990234 89.57836914 63.29443359 C77.1793817 70.50099858 69.92573764 78.27930611 65.51977539 92.19287109 C62.48646071 106.697242 64.5080524 121.14378495 68.51977539 135.19287109 C68.84977539 136.51287109 69.17977539 137.83287109 69.51977539 139.19287109 C39.15977539 139.19287109 8.79977539 139.19287109 -22.48022461 139.19287109 C-20.48022461 130.19287109 -20.48022461 130.19287109 -19.84741211 127.35693359 C-16.52541842 110.21966455 -16.79849799 92.11110851 -26.48022461 77.19287109 C-31.04484667 70.43671174 -37.28044804 66.79275938 -44.48022461 63.19287109 C-44.28253644 60.15471599 -44.05756198 57.12153855 -43.80444336 54.08740234 C-43.58935916 51.50380059 -43.40414246 48.91752802 -43.24975586 46.32958984 C-42.06945431 32.29094431 -36.87290066 20.00065715 -26.33959961 10.31787109 C-18.54459027 4.52485869 -9.82174601 0.13096003 0 0 Z " fill="#FEFEFE" transform="translate(355.480224609375,261.80712890625)"/>
<path d="M0 0 C1.075345 -0.00730133 2.15069 -0.01460266 3.25862122 -0.02212524 C6.81172953 -0.03833192 10.36301212 -0.01112376 13.91601562 0.01806641 C16.38553872 0.01910369 18.85506349 0.01806796 21.32458496 0.01504517 C26.4996812 0.01522459 31.67415416 0.03607804 36.84912109 0.07226562 C43.48396717 0.11764079 50.1179025 0.11872829 56.75286102 0.10523033 C61.85211284 0.09854859 66.95115686 0.11181483 72.05036926 0.1314888 C74.49679985 0.13918937 76.94325356 0.14149064 79.38969421 0.13831711 C82.8084215 0.13757567 86.22597956 0.16281691 89.64453125 0.1953125 C90.65663162 0.19035767 91.66873199 0.18540283 92.71150208 0.18029785 C96.70293082 0.24087614 99.73172818 0.50489475 103.45018005 2.01443481 C106.6070237 6.618282 106.00705697 11.53314623 105.95336914 16.97705078 C105.96052444 18.22942032 105.96767975 19.48178986 105.97505188 20.77210999 C105.98906618 24.20439324 105.98062841 27.6351707 105.96096158 31.06733131 C105.94457458 34.65960213 105.95338803 38.25182376 105.95848083 41.84411621 C105.96300178 47.87667243 105.94713228 53.90891859 105.91918945 59.94140625 C105.88713721 66.91480835 105.88715306 73.88765123 105.90440422 80.86109304 C105.92027073 87.57059837 105.91353506 94.27989877 105.89646721 100.98939514 C105.88959642 103.84421751 105.89062933 106.69887562 105.89801216 109.55369568 C105.9070991 113.54008283 105.88313638 117.52589579 105.85571289 121.51220703 C105.86223877 122.69778702 105.86876465 123.883367 105.87548828 125.10487366 C105.8564016 126.73258949 105.8564016 126.73258949 105.83692932 128.39318848 C105.8341224 129.33559639 105.83131548 130.2780043 105.8284235 131.24897003 C105.16493497 134.52036244 103.91022998 135.6957264 101.32226562 137.74462891 C97.88476563 138.74462891 97.88476563 138.74462891 94.32226562 138.74462891 C91.52037117 136.97821718 89.80701652 135.71413069 88.32226562 132.74462891 C88.23262716 131.2636208 88.20468637 129.77863466 88.20874023 128.29492188 C88.20886108 127.36123779 88.20898193 126.42755371 88.20910645 125.46557617 C88.21422241 124.48258545 88.21933838 123.49959473 88.22460938 122.48681641 C88.22561646 121.58455322 88.22662354 120.68229004 88.22766113 119.75268555 C88.23290205 116.37498711 88.24686327 112.99730676 88.25976562 109.61962891 C88.28039062 102.07087891 88.30101562 94.52212891 88.32226562 86.74462891 C59.94226563 86.74462891 31.56226563 86.74462891 2.32226562 86.74462891 C2.44084845 101.32914751 2.44084845 101.32914751 2.5925293 115.91333008 C2.60129399 117.74641394 2.60893797 119.57950365 2.61523438 121.41259766 C2.63058228 122.35864868 2.64593018 123.30469971 2.66174316 124.27941895 C2.66370864 129.22914388 2.65930611 132.78771985 -0.67773438 136.74462891 C-4.19597949 139.09012565 -5.53549132 139.32454293 -9.67773438 138.74462891 C-12.25059161 136.57199391 -14.16770357 134.76469052 -15.67773438 131.74462891 C-15.78112094 130.0985352 -15.82155902 128.44831768 -15.83163452 126.79901123 C-15.84023499 125.7531636 -15.84883545 124.70731598 -15.85769653 123.629776 C-15.86195648 122.47755051 -15.86621643 121.32532501 -15.87060547 120.13818359 C-15.87878296 118.92833298 -15.88696045 117.71848236 -15.89538574 116.4719696 C-15.92027332 112.45348443 -15.93691501 108.43503693 -15.95117188 104.41650391 C-15.95653175 103.03292077 -15.96190926 101.6493377 -15.96730423 100.2657547 C-15.98893459 94.50961586 -16.00767052 88.75347984 -16.01892662 82.99731064 C-16.03516039 74.749965 -16.06832166 66.5030909 -16.12532747 58.25592303 C-16.1640474 52.4562615 -16.18356178 46.65672598 -16.18884718 40.8569386 C-16.19249836 37.39353445 -16.20449294 33.93063319 -16.23694992 30.46736908 C-16.27266477 26.60099002 -16.26865442 22.73520092 -16.26123047 18.86865234 C-16.2776358 17.72452377 -16.29404114 16.5803952 -16.3109436 15.40159607 C-16.24269048 6.72787178 -16.24269048 6.72787178 -13.80862427 3.03341675 C-9.25514715 -0.29533112 -5.51416675 -0.08328985 0 0 Z " fill="#262223" transform="translate(108.677734375,330.25537109375)"/>
<path d="M0 0 C29.7 0 59.4 0 90 0 C94.62234855 24.26732988 94.62234855 24.26732988 96.578125 36 C96.79442566 37.29019043 97.01072632 38.58038086 97.23358154 39.90966797 C97.6821044 42.5876191 98.12880204 45.2658665 98.57421875 47.94433594 C99.14356729 51.3664247 99.71894539 54.78747152 100.29573441 58.20831299 C100.85189235 61.51326084 101.40217248 64.81918041 101.953125 68.125 C102.26240936 69.95611328 102.26240936 69.95611328 102.57794189 71.82421875 C102.76523865 72.95730469 102.9525354 74.09039062 103.14550781 75.2578125 C103.31109192 76.2492627 103.47667603 77.24071289 103.64727783 78.26220703 C104 81 104 81 104 86 C65.39 86 26.78 86 -13 86 C-13 80.34442441 -12.75758614 75.41255694 -11.80664062 69.93164062 C-11.613353 68.77046848 -11.613353 68.77046848 -11.41616058 67.58583832 C-11.00224256 65.10824761 -10.57946644 62.63226735 -10.15625 60.15625 C-9.89752168 58.61565892 -9.63938148 57.07496894 -9.38183594 55.53417969 C-8.4283344 49.85492143 -7.46349441 44.1775715 -6.5 38.5 C-4.355 25.795 -2.21 13.09 0 0 Z " fill="#FEFEFE" transform="translate(195,89)"/>
<path d="M0 0 C7.72861347 4.15055168 11.31071945 8.61216358 14.375 16.8125 C15.06841804 20.67422663 15.1377293 24.39611362 15.0625 28.3125 C15.05250977 29.3526123 15.04251953 30.39272461 15.03222656 31.46435547 C14.64808782 43.8651907 11.32380698 54.57449228 4.375 64.8125 C3.6593401 68.70887056 3.94020657 70.16641058 6.15574646 73.45863342 C11.04076165 77.03047821 15.53955504 76.48778938 21.44555664 76.41186523 C22.66881149 76.41580795 23.89206635 76.41975067 25.15238953 76.42381287 C28.49994611 76.42937015 31.84595469 76.41264362 35.19330907 76.38533282 C38.69879698 76.36147119 42.20426896 76.36444753 45.70982361 76.36402893 C51.5951878 76.35940357 57.48022808 76.33577932 63.36547852 76.29956055 C70.16780601 76.25780913 76.96984201 76.24024442 83.77229029 76.2369408 C91.0184525 76.23334 98.26450999 76.21446523 105.51062846 76.18982053 C107.59715934 76.18359523 109.68368225 76.17995685 111.7702198 76.17678642 C115.65819163 76.16978445 119.54594776 76.1453892 123.43383789 76.11889648 C124.58979462 76.11823181 125.74575134 76.11756714 126.93673706 76.11688232 C127.99519333 76.1069072 129.0536496 76.09693207 130.1441803 76.08665466 C131.06316636 76.08200416 131.98215242 76.07735365 132.92898655 76.07256222 C135.54436198 75.79449329 137.16585085 75.22266176 139.375 73.8125 C140.9214676 70.71956479 140.61681112 68.23990972 140.375 64.8125 C139.35723698 62.30852414 138.31941912 60.05716871 137.0625 57.6875 C130.83256385 45.06816634 128.29403712 31.46945184 131 17.4375 C134.19939673 9.0027268 138.99806268 2.59425194 147.375 -1.1875 C152.59463372 -2.45554661 157.00597123 -0.92585264 161.55859375 1.61328125 C170.10723306 7.25722161 173.26184203 15.2292613 175.375 24.8125 C178.87165509 42.15207729 175.93077895 59.61533237 166.5625 74.625 C161.00355175 82.44713328 154.08655522 87.01807056 145.375 90.8125 C144.61705422 91.15835679 143.85910845 91.50421358 143.07819462 91.86055088 C140.12082942 92.90200797 137.85805556 93.07173677 134.72935486 93.08665466 C133.04119156 93.10161736 133.04119156 93.10161736 131.31892395 93.11688232 C130.09340317 93.117547 128.86788239 93.11821167 127.60522461 93.11889648 C126.30703796 93.12722 125.00885132 93.13554352 123.67132568 93.14411926 C120.11513563 93.16603021 116.55903156 93.17485938 113.00278163 93.17994571 C110.77627919 93.1835955 108.54979904 93.18983899 106.32330513 93.1969471 C98.54178002 93.22143673 90.76032143 93.23449094 82.97875977 93.23803711 C75.74929879 93.24166464 68.52026437 93.27150462 61.29093355 93.31344169 C55.06732752 93.348266 48.8438619 93.36358769 42.62015921 93.36428314 C38.91072227 93.36507231 35.20171939 93.37364184 31.49238396 93.40228081 C27.34480201 93.43358649 23.19821867 93.42434423 19.05053711 93.41186523 C17.23351036 93.43411667 17.23351036 93.43411667 15.379776 93.45681763 C2.0946144 93.34355033 -8.3444334 88.23944778 -17.625 78.8125 C-22.91257385 72.16863398 -26.25028888 64.92709078 -28.625 56.8125 C-28.85058594 56.0596875 -29.07617188 55.306875 -29.30859375 54.53125 C-32.52167585 41.59028485 -32.40388286 23.32560327 -26.37109375 11.31640625 C-19.98770831 2.11528663 -11.10553656 -3.6380206 0 0 Z " fill="#FDFDFD" transform="translate(305.625,341.1875)"/>
<path d="M0 0 C28.38 0 56.76 0 86 0 C86 17.16 86 34.32 86 52 C57.62 52 29.24 52 0 52 C0 34.84 0 17.68 0 0 Z " fill="#FDFDFD" transform="translate(111,348)"/>
<path d="M0 0 C2.5 1.625 2.5 1.625 4 4 C4.66974422 7.93474728 4.35110528 9.47334208 2.125 12.8125 C-0.60471166 15.6224973 -1.44004145 15.93778238 -5.375 16.375 C-9 16 -9 16 -11.4375 13.875 C-13.29055839 10.46537255 -13.71588388 8.81804737 -13 5 C-9.2217441 -0.43124286 -6.19885712 -0.88555102 0 0 Z " fill="#282425" transform="translate(159,366)"/>
</svg>
